<svg width="572" height="519" viewBox="0 0 572 519" fill="none" xmlns="http://www.w3.org/2000/svg">
<g clip-path="url(#clip0_3_356)">
<path d="M399.855 444.982C431.686 451.041 465.617 457.5 494.674 457.5C524.453 457.5 549.11 450.718 561.138 429.772C576.624 402.816 570.399 385.196 562.88 375.385C565.318 368.878 566.674 361.765 566.881 354.102C567.432 333.294 562.447 313.74 552.477 297.538C543.691 283.265 531.235 272.014 517.402 265.852C499.989 258.092 482.872 259.297 470.974 268.936L470.341 268.571C482.445 258.608 499.92 257.314 517.685 265.225C531.641 271.443 544.207 282.79 553.069 297.18C563.115 313.492 568.127 333.184 567.576 354.122C567.377 361.731 566.055 368.802 563.672 375.281C571.212 385.306 577.271 403.098 561.744 430.123C549.557 451.337 524.68 458.195 494.674 458.195C465.549 458.195 431.59 451.73 399.731 445.671C361.393 438.372 324.977 431.445 304.41 437.188V436.479C325.197 430.791 361.572 437.704 399.862 444.996L399.855 444.982Z" fill="white"/>
<path d="M544.345 396.137C533.989 405.15 519.51 411.43 502.475 414.287C470.128 419.72 433.18 411.223 427.886 397.129C424.87 389.093 433.614 381.623 441.484 376.775C461.404 364.506 484.607 357.627 506.813 357.414C527.724 357.207 545.825 363.046 556.525 373.415C557.393 374.255 558.212 375.13 558.977 376.018C555.782 383.709 550.9 390.436 544.345 396.137ZM556.05 373.911C545.66 363.838 528.144 358.095 507.873 358.095C507.522 358.095 507.171 358.095 506.82 358.095C484.738 358.309 461.665 365.153 441.849 377.361C434.2 382.077 425.675 389.286 428.533 396.888C430.881 403.14 440.527 408.875 454.326 412.228C468.957 415.781 486.467 416.284 502.365 413.612C519.269 410.769 533.631 404.551 543.898 395.621C550.26 390.085 555.024 383.578 558.185 376.149C557.517 375.385 556.808 374.641 556.057 373.911H556.05Z" fill="white"/>
<path d="M515.998 268.991C529.204 274.872 541.115 285.654 549.543 299.342C559.162 314.972 563.968 333.873 563.438 354.012C563.266 360.602 562.226 366.736 560.34 372.389C559.864 371.88 559.389 371.398 558.928 370.95C547.588 359.947 528.57 353.764 506.785 353.971C483.96 354.191 460.13 361.256 439.687 373.849C423.43 383.86 422.549 392.701 424.67 398.347C430.681 414.356 468.041 423.575 503.053 417.695C531.972 412.834 552.173 399.208 561.345 379.109C570.124 391.958 569.084 409.054 558.157 428.072C535.607 467.332 463.827 453.671 400.502 441.615C362.412 434.365 326.202 427.479 304.403 432.939V432.23C326.388 426.818 362.577 433.697 400.626 440.94C463.731 452.948 535.249 466.561 557.558 427.727C568.044 409.474 569.318 393.039 561.441 380.535C551.953 400.227 531.793 413.571 503.156 418.384C467.855 424.312 430.13 414.886 424.016 398.602C421.805 392.715 422.666 383.537 439.315 373.278C459.868 360.615 483.822 353.523 506.771 353.296C507.136 353.296 507.494 353.296 507.859 353.296C529.376 353.296 548.118 359.527 559.396 370.468C559.603 370.668 559.816 370.881 560.03 371.095C561.675 365.807 562.584 360.106 562.743 354.012C563.273 334.01 558.501 315.234 548.951 299.721C540.599 286.15 528.791 275.471 515.708 269.639C500.388 262.815 485.433 263.456 474.823 271.195L474.176 270.823C485 262.774 500.32 262.037 515.991 269.012L515.998 268.991Z" fill="white"/>
<path d="M400.495 441.601C463.82 453.658 535.601 467.318 558.15 428.058C569.077 409.04 570.117 391.951 561.338 379.096C552.167 399.194 531.965 412.827 503.046 417.681C468.034 423.562 430.674 414.342 424.663 398.334C422.542 392.688 423.424 383.854 439.68 373.835C460.123 361.242 483.953 354.184 506.778 353.957C528.564 353.744 547.581 359.934 558.921 370.937C559.383 371.384 559.858 371.866 560.333 372.376C562.219 366.723 563.259 360.588 563.431 353.999C563.961 333.859 559.155 314.958 549.537 299.329C541.109 285.64 529.197 274.865 515.991 268.978C500.32 261.996 485 262.733 474.176 270.789L470.961 268.923C482.852 259.276 499.976 258.078 517.389 265.838C531.221 272 543.677 283.251 552.463 297.525C562.433 313.726 567.418 333.28 566.867 354.088C566.667 361.751 565.311 368.871 562.867 375.371C570.386 385.182 576.61 402.802 561.125 429.758C549.089 450.704 524.439 457.486 494.66 457.486C465.604 457.486 431.673 451.027 399.841 444.968C361.552 437.684 325.176 430.764 304.389 436.451V432.905C326.181 427.445 362.399 434.337 400.489 441.581L400.495 441.601ZM556.525 373.415C545.825 363.039 527.724 357.207 506.813 357.414C484.607 357.627 461.404 364.506 441.484 376.775C433.614 381.623 424.863 389.093 427.886 397.129C433.18 411.223 470.127 419.726 502.475 414.287C519.509 411.423 533.983 405.15 544.345 396.137C550.9 390.436 555.789 383.709 558.976 376.018C558.212 375.123 557.393 374.255 556.525 373.415Z" fill="#231F20"/>
<path d="M495.383 284.305V326.388L338.493 417.475V375.398L495.383 284.305Z" fill="black"/>
<path d="M87.2794 229.139L162.268 185.603V245.478L193.672 263.71C194.54 264.757 195.573 265.673 196.757 266.403C197.508 266.864 198.341 267.098 199.174 267.098C199.277 267.098 199.374 267.084 199.477 267.077L212.015 274.362C212.924 275.519 214.033 276.531 215.32 277.33C216.071 277.791 216.904 278.025 217.737 278.025C217.916 278.025 218.095 278.011 218.274 277.991L327.153 341.205V341.605L327.497 341.405L327.841 341.605V341.205L444.989 273.123C449.967 270.231 454.271 266.451 457.755 262.051L495.046 283.699L338.155 374.792L87.2863 229.132L87.2794 229.139Z" fill="black"/>
<path d="M337.804 375.391V417.475L87.1138 271.925V229.841L337.804 375.391Z" fill="black"/>
<path d="M474.183 270.802L474.83 271.174L495.9 283.409L496.072 283.506V326.781L338.327 418.37L338.155 418.473L86.9281 272.606H87.1209V271.925L337.811 417.482V418.081H338.5V417.482L495.383 326.395V284.311L495.9 284.009L495.555 283.409L495.039 283.706L457.748 262.058C457.892 261.879 458.037 261.693 458.175 261.514L470.334 268.571L470.968 268.936L474.183 270.802Z" fill="white"/>
<path d="M162.268 185.603L87.279 229.139L86.7764 228.85L86.6043 229.146H86.4252V272.317L86.26 272.221L86.2393 228.946L162.268 184.804V185.603Z" fill="white"/>
<path d="M338.493 375.212V375.199H337.804V375.212V375.391L87.1141 229.841V229.146H86.6046L86.7767 228.85L87.2793 229.139L338.148 374.799L495.039 283.706L495.549 283.409L495.9 284.002L495.383 284.305L338.493 375.398V375.212Z" fill="white"/>
<path d="M337.804 375.199H338.493V375.219H337.804V375.199Z" fill="white"/>
<path d="M145.123 350.349V355.245L135.594 362.399V357.517L145.123 350.349Z" fill="black"/>
<path d="M122.498 349.585L132.11 342.348L144.841 349.695L135.222 356.932L122.498 349.585Z" fill="black"/>
<path d="M155.947 374.613L143.257 367.287V362.337L155.947 369.663V374.613Z" fill="black"/>
<path d="M64.7367 338.823L74.3487 331.587L93.0632 342.362L83.4512 349.599L64.7367 338.823Z" fill="black"/>
<path d="M93.3452 343.016V347.905L83.8159 355.066V350.184L93.3452 343.016Z" fill="black"/>
<path d="M83.1274 355.162L64.4543 344.407V339.457L83.1274 350.212V355.162Z" fill="black"/>
<path d="M134.905 362.495L122.215 355.169V350.218L134.905 357.545V362.495Z" fill="black"/>
<path d="M79.9873 357.221V362.109L70.4579 369.27V364.389L79.9873 357.221Z" fill="black"/>
<path d="M69.7695 369.367L47.9841 356.815V351.864L69.7695 364.416V369.367Z" fill="black"/>
<path d="M48.2666 351.231L57.8786 343.994L79.7122 356.567L70.0933 363.803L48.2666 351.231Z" fill="black"/>
<path d="M101.456 337.467L111.075 330.23L123.799 337.577L114.187 344.813L101.456 337.467Z" fill="black"/>
<path d="M113.864 350.37L101.181 343.044V338.093L113.864 345.419V350.37Z" fill="black"/>
<path d="M124.081 338.231V343.12L114.552 350.28V345.399L124.081 338.231Z" fill="black"/>
<path d="M104.334 326.836V331.731L94.8117 338.885V334.003L104.334 326.836Z" fill="black"/>
<path d="M94.123 338.981L81.4333 331.655V326.705L94.123 334.031V338.981Z" fill="black"/>
<path d="M81.7089 326.071L91.3278 318.835L104.052 326.182L94.44 333.418L81.7089 326.071Z" fill="black"/>
<path d="M208.242 386.704V391.6L198.719 398.76V393.872L208.242 386.704Z" fill="black"/>
<path d="M239.907 422.99L227.218 415.664V410.713L239.907 418.04V422.99Z" fill="black"/>
<path d="M227.5 410.08L237.112 402.85L249.843 410.197L240.224 417.434L227.5 410.08Z" fill="black"/>
<path d="M250.125 410.851V415.74L240.596 422.901V418.019L250.125 410.851Z" fill="black"/>
<path d="M229.187 398.788V403.683L219.657 410.837V405.956L229.187 398.788Z" fill="black"/>
<path d="M260.846 435.06L248.156 427.734V422.784L260.846 430.11V435.06Z" fill="black"/>
<path d="M301.766 425.249C300.141 424.436 298.234 424.615 296.781 425.703L216.091 486.411L213.984 487.995C210.555 490.57 208.276 494.412 207.587 498.599C206.548 494.268 203.787 490.446 199.869 488.14L195.813 485.757L6.93341 374.682C5.49435 373.835 3.76614 373.822 2.31332 374.655C1.64545 375.033 1.10837 375.564 0.715912 376.176C0.881165 373.037 2.45102 370.097 5.00549 368.231L89.5305 306.689C92.388 304.61 95.7756 303.549 99.1701 303.549C102.021 303.549 104.885 304.293 107.446 305.801L295.961 416.318C299.769 418.549 302.42 422.295 303.343 426.522C302.923 425.999 302.385 425.565 301.759 425.249H301.766ZM254.842 440.906V434.778L233.545 422.501L223.011 430.426V436.541L244.314 448.817L254.849 440.906H254.842ZM167.941 413.103V406.975L167.769 406.878L154.198 399.043L143.663 406.968V413.082L143.836 413.178L157.407 421.014L167.941 413.096V413.103ZM164.43 419.031V425.145L164.602 425.242L178.173 433.077L188.708 425.159V419.031L188.536 418.935L174.964 411.099L164.43 419.024V419.031ZM147.175 401.033V394.905L147.003 394.808L133.432 386.973L122.897 394.898V401.012L123.069 401.108L136.647 408.944L147.182 401.026L147.175 401.033ZM126.409 388.963V382.835L126.237 382.738L112.665 374.903L102.131 382.828V388.942L102.303 389.038L115.874 396.874L126.409 388.956V388.963ZM121.665 364.189V358.061L121.541 357.992L100.864 346.005L90.3292 353.93V360.044L97.3799 364.134V364.168L97.552 364.265L110.841 371.935L111.13 372.1L121.665 364.182V364.189ZM118.318 370.11V376.225L118.49 376.321L132.062 384.157L142.596 376.238V370.11L142.424 370.014L128.853 362.178L118.318 370.103V370.11ZM139.257 382.174V388.288L139.429 388.384L153 396.22L163.535 388.302V382.174L163.363 382.077L149.791 374.242L139.257 382.167V382.174ZM160.195 394.237V400.351L160.367 400.447L173.939 408.283L184.473 400.365V394.237L184.301 394.14L170.73 386.305L160.195 394.23V394.237ZM181.134 406.3V412.414L181.306 412.511L194.877 420.346L205.412 412.428V406.3L205.239 406.204L191.668 398.368L181.134 406.293V406.3ZM202.072 418.363V424.477L202.244 424.574L215.815 432.409L226.35 424.491V418.363L226.178 418.267L212.607 410.431L202.072 418.356V418.363ZM213.66 453.554L213.832 453.651L227.404 461.486L237.938 453.568V447.44L237.766 447.344L224.195 439.508L213.66 447.433V453.547V453.554ZM206.665 449.506L217.199 441.588V435.46L195.903 423.183L185.368 431.108V437.222L206.672 449.499L206.665 449.506ZM93.6274 407.532L93.7995 407.629L184.866 460.075L195.4 452.164V446.035L195.228 445.939L104.162 393.493L93.6274 401.418V407.532ZM81.3576 376.879L81.5297 376.975L95.1008 384.811L105.635 376.892V370.764L105.463 370.668L91.8922 362.832L81.3576 370.758V376.872V376.879ZM30.4539 363.721V369.835L50.1874 381.196L60.7221 373.278V367.15L40.9886 355.789L30.4539 363.714V363.721ZM47.2887 351.1V357.214L47.4608 357.31L70.1344 370.365L80.6691 362.447V356.319L80.4969 356.222L57.8233 343.168L47.2887 351.093V351.1ZM63.7585 338.692V344.807L83.4921 356.167L94.0267 348.249V342.121L74.2932 330.76L63.7585 338.685V338.692ZM105.016 325.947L104.844 325.851L91.2725 318.015L80.7379 325.941V332.055L80.91 332.151L94.488 339.987L105.023 332.069V325.941L105.016 325.947ZM124.763 337.343L124.591 337.246L111.02 329.411L100.485 337.336V343.45L100.657 343.546L114.228 351.382L124.763 343.464V337.336V337.343ZM145.805 349.461L145.633 349.365L132.062 341.529L121.527 349.454V355.568L121.699 355.665L135.27 363.5L145.805 355.582V349.454V349.461ZM166.847 361.579L166.674 361.483L153.103 353.647L142.569 361.572V367.687L142.741 367.783L156.312 375.619L166.847 367.7V361.572V361.579ZM187.888 373.698L187.716 373.601L174.145 365.766L163.61 373.691V379.805L163.783 379.901L177.354 387.737L187.888 379.819V373.691V373.698ZM208.93 385.816L208.758 385.72L195.187 377.884L184.652 385.809V391.923L184.824 392.02L198.402 399.855L208.937 391.937V385.809L208.93 385.816ZM229.875 397.9L229.703 397.803L216.132 389.968L205.598 397.893V404.007L205.77 404.104L219.341 411.939L229.875 404.021V397.893V397.9ZM250.642 409.86L237.071 402.024L226.536 409.949V416.063L226.708 416.16L240.279 423.995L250.814 416.077V409.949L250.642 409.853V409.86ZM271.752 422.026L271.58 421.93L258.009 414.094L247.474 422.019V428.133L247.647 428.23L261.218 436.065L271.752 428.147V422.019V422.026Z" fill="black"/>
<path d="M271.064 422.914V427.81L261.534 434.971V430.082L271.064 422.914Z" fill="black"/>
<path d="M143.539 361.703L153.151 354.467L165.883 361.813L156.264 369.05L143.539 361.703Z" fill="black"/>
<path d="M248.439 422.15L258.051 414.914L270.782 422.267L261.163 429.497L248.439 422.15Z" fill="black"/>
<path d="M206.562 398.024L216.181 390.787L228.905 398.134L219.293 405.37L206.562 398.024Z" fill="black"/>
<path d="M164.575 373.822L174.194 366.585L186.925 373.939L177.306 381.168L164.575 373.822Z" fill="black"/>
<path d="M176.989 386.732L164.299 379.406V374.455L176.989 381.781V386.732Z" fill="black"/>
<path d="M166.165 362.468V367.363L156.636 374.517V369.635L166.165 362.468Z" fill="black"/>
<path d="M187.2 374.586V379.481L177.677 386.635V381.754L187.2 374.586Z" fill="black"/>
<path d="M198.031 398.85L185.341 391.524V386.573L198.031 393.899V398.85Z" fill="black"/>
<path d="M31.4249 363.852L41.0438 356.615L59.7583 367.391L50.1394 374.627L31.4249 363.852Z" fill="black"/>
<path d="M218.969 410.934L206.279 403.608V398.657L218.969 405.983V410.934Z" fill="black"/>
<path d="M185.616 385.94L195.235 378.703L207.966 386.057L198.347 393.293L185.616 385.94Z" fill="black"/>
<path d="M215.45 431.397L202.761 424.071V419.121L215.45 426.447V431.397Z" fill="black"/>
<path d="M115.509 395.869L102.819 388.542V383.592L115.509 390.918V395.869Z" fill="black"/>
<path d="M103.095 382.958L112.714 375.722L125.445 383.075L115.826 390.312L103.095 382.958Z" fill="black"/>
<path d="M177.809 432.072L165.119 424.746V419.795L177.809 427.121V432.072Z" fill="black"/>
<path d="M146.487 395.793V400.688L136.964 407.842V402.961L146.487 395.793Z" fill="black"/>
<path d="M123.861 395.029L133.48 387.792L146.211 395.139L136.592 402.375L123.861 395.029Z" fill="black"/>
<path d="M136.275 407.939L123.586 400.613V395.662L136.275 402.988V407.939Z" fill="black"/>
<path d="M125.72 383.723V388.618L116.198 395.779V390.89L125.72 383.723Z" fill="black"/>
<path d="M120.701 358.302L111.082 365.538L98.3782 358.171L107.97 350.955L120.701 358.302Z" fill="black"/>
<path d="M97.731 357.792L91.3001 354.067L100.919 346.831L107.343 350.563L97.731 357.792Z" fill="black"/>
<path d="M119.289 370.248L128.908 363.011L141.639 370.365L132.02 377.595L119.289 370.248Z" fill="black"/>
<path d="M97.3872 363.342L91.0182 359.651V354.701L97.3872 358.391V363.342Z" fill="black"/>
<path d="M110.765 366.144V371.095L98.0754 363.741V358.818L110.765 366.144Z" fill="black"/>
<path d="M223.982 430.557L233.594 423.321L253.878 435.012L244.259 442.249L223.982 430.557Z" fill="black"/>
<path d="M195.469 486.343L198.278 487.995L199.525 488.725C204.365 491.569 207.367 496.822 207.367 502.441V506.551L0.688431 388.047V378.634C0.688431 377.216 1.4252 375.942 2.65768 375.24C3.89017 374.538 5.35672 374.545 6.58232 375.261L189.768 482.983L195.462 486.329L195.469 486.343Z" fill="black"/>
<path d="M207.367 517.885V518.298C205.549 518.243 203.739 517.754 202.114 516.81L5.21898 402.561C2.43039 400.943 0.695267 397.934 0.695267 394.705V388.839L207.374 507.336V517.878L207.367 517.885Z" fill="black"/>
<path d="M141.915 371.012V375.908L132.385 383.062V378.18L141.915 371.012Z" fill="black"/>
<path d="M254.16 435.666V440.555L244.631 447.716V442.834L254.16 435.666Z" fill="black"/>
<path d="M208.055 507.329L303.714 443.812V444.851C303.714 456.57 297.435 467.525 287.32 473.446L213.295 516.79C211.677 517.74 209.873 518.236 208.055 518.298V507.329Z" fill="black"/>
<path d="M208.056 502.441V501.256C208.056 496.285 210.424 491.534 214.397 488.546L224.622 480.855L297.187 426.261C298.447 425.31 300.045 425.166 301.449 425.868C302.764 426.522 303.577 427.748 303.68 429.187C303.687 429.4 303.701 429.614 303.701 429.834V442.992L208.042 506.51V502.441H208.056Z" fill="black"/>
<path d="M167.26 407.863V412.752L157.731 419.912V415.031L167.26 407.863Z" fill="black"/>
<path d="M165.401 419.162L175.019 411.925L187.744 419.279L178.125 426.509L165.401 419.162Z" fill="black"/>
<path d="M188.026 419.926V424.822L178.497 431.982V427.094L188.026 419.926Z" fill="black"/>
<path d="M144.634 407.092L154.246 399.862L166.978 407.209L157.359 414.445L144.634 407.092Z" fill="black"/>
<path d="M243.943 447.812L223.7 436.141V431.191L243.943 442.861V447.812Z" fill="black"/>
<path d="M157.042 420.002L144.352 412.676V407.725L157.042 415.051V420.002Z" fill="black"/>
<path d="M204.73 407.195V412.091L195.201 419.244V414.363L204.73 407.195Z" fill="black"/>
<path d="M194.712 446.924V451.812L185.19 458.973V454.091L194.712 446.924Z" fill="black"/>
<path d="M206.3 448.487L186.057 436.823V431.872L206.3 443.543V448.487Z" fill="black"/>
<path d="M237.257 448.335V453.224L227.727 460.385V455.496L237.257 448.335Z" fill="black"/>
<path d="M216.511 436.348V441.236L206.988 448.397V443.509L216.511 436.348Z" fill="black"/>
<path d="M227.039 460.474L214.349 453.148V448.198L227.039 455.524V460.474Z" fill="black"/>
<path d="M186.332 431.239L195.951 424.002L216.235 435.694L206.616 442.93L186.332 431.239Z" fill="black"/>
<path d="M94.5986 401.542L104.218 394.306L194.437 446.27L184.818 453.506L94.5986 401.542Z" fill="black"/>
<path d="M60.0337 368.045V372.933L50.5112 380.094V375.206L60.0337 368.045Z" fill="black"/>
<path d="M94.7361 383.798L82.0532 376.472V371.529L94.7361 378.848V383.798Z" fill="black"/>
<path d="M104.954 371.66V376.548L95.4247 383.709V378.827L104.954 371.66Z" fill="black"/>
<path d="M82.3283 370.895L91.9472 363.659L104.671 371.005L95.0594 378.242L82.3283 370.895Z" fill="black"/>
<path d="M113.175 413.034L184.501 454.119V459.07L94.3231 407.126V402.196L113.168 413.048L113.175 413.034Z" fill="black"/>
<path d="M203.043 418.487L212.655 411.251L225.386 418.604L215.767 425.841L203.043 418.487Z" fill="black"/>
<path d="M152.635 395.214L139.946 387.888V382.945L152.635 390.264V395.214Z" fill="black"/>
<path d="M173.574 407.278L160.884 399.952V395.001L173.574 402.327V407.278Z" fill="black"/>
<path d="M183.792 395.132V400.027L174.262 407.181V402.3L183.792 395.132Z" fill="black"/>
<path d="M161.166 394.368L170.785 387.131L183.509 394.485L173.897 401.714L161.166 394.368Z" fill="black"/>
<path d="M140.228 382.311L149.847 375.075L162.571 382.421L152.959 389.658L140.228 382.311Z" fill="black"/>
<path d="M162.854 383.076V387.964L153.324 395.125V390.243L162.854 383.076Z" fill="black"/>
<path d="M225.669 419.251V424.147L216.139 431.308V426.419L225.669 419.251Z" fill="black"/>
<path d="M214.631 447.564L224.25 440.328L236.974 447.681L227.355 454.918L214.631 447.564Z" fill="black"/>
<path d="M131.697 383.158L119.014 375.832V370.882L131.697 378.208V383.158Z" fill="black"/>
<path d="M194.512 419.341L181.823 412.015V407.064L194.512 414.39V419.341Z" fill="black"/>
<path d="M49.8228 380.184L31.1496 369.436V364.485L49.8228 375.233V380.184Z" fill="black"/>
<path d="M182.104 406.431L191.723 399.194L204.448 406.541L194.829 413.777L182.104 406.431Z" fill="black"/>
<path d="M111.454 366.124L120.976 358.956V363.845L111.454 371.005V366.124Z" fill="black"/>
<path d="M4.61288 367.673L89.1379 306.131C94.6256 302.138 101.952 301.773 107.804 305.209L296.319 415.726C301.125 418.542 304.169 423.665 304.382 429.208C304.32 428.209 303.955 427.28 303.349 426.522C302.427 422.295 299.776 418.549 295.968 416.318L107.453 305.801C104.885 304.3 102.027 303.549 99.1768 303.549C95.7823 303.549 92.4016 304.603 89.5373 306.689L5.01224 368.231C2.45776 370.09 0.887909 373.03 0.722656 376.176C0.261322 376.899 -0.000335693 377.746 -0.000335693 378.648V376.734C-0.000335693 373.167 1.72101 369.78 4.60599 367.68L4.61288 367.673Z" fill="white"/>
<path d="M0.688293 386.58V388.054L0.516174 387.957L0.171875 388.556L0.688293 388.852V394.719C0.688293 397.948 2.42343 400.957 5.21201 402.575L202.107 516.824C203.732 517.767 205.542 518.256 207.36 518.311V518.669H208.049V518.311C209.866 518.249 211.67 517.754 213.288 516.804L287.313 473.46C297.428 467.539 303.707 456.577 303.707 444.865V443.825L304.244 443.467L303.866 442.896L303.714 442.999V439.935H304.403V444.865C304.403 456.825 297.993 468.014 287.671 474.059L213.647 517.403C211.808 518.477 209.749 519.014 207.691 519.014C205.632 519.014 203.601 518.484 201.769 517.423L4.87463 403.174C1.87259 401.432 0.00665283 398.196 0.00665283 394.719V386.587H0.69519L0.688293 386.58Z" fill="white"/>
<path d="M303.714 429.504V429.827C303.714 429.614 303.7 429.394 303.693 429.18C303.7 429.29 303.714 429.394 303.714 429.504Z" fill="white"/>
<path d="M195.47 486.343L198.279 487.995L195.47 486.343Z" fill="white"/>
<path d="M0.722824 376.169C1.1153 375.557 1.65231 375.026 2.32021 374.648C3.77303 373.815 5.49438 373.828 6.94031 374.675L195.82 485.75L190.126 482.404L189.775 482.996L6.58916 375.274C5.36356 374.558 3.89696 374.545 2.66447 375.254C1.43199 375.963 0.695267 377.23 0.695267 378.648V386.587H0.00672913V378.648C0.00672913 377.746 0.268356 376.899 0.729675 376.176L0.722824 376.169Z" fill="white"/>
<path d="M265.687 10.4107C288.339 -2.56135 316.473 -2.55447 339.119 10.4314L442.435 69.6733C455.131 76.958 463.793 89.5583 466.237 103.735C464.908 100.781 462.678 98.2752 459.737 96.5676C454.787 93.6964 448.872 93.6826 443.908 96.5263L327.497 163.191L163.301 69.0467L265.687 10.4107Z" fill="black"/>
<path d="M161.917 69.0398L162.268 68.8401V69.2395L161.917 69.0398Z" fill="white"/>
<path d="M466.237 103.728C463.786 89.5514 455.131 76.9511 442.434 69.6664L339.112 10.4314C316.466 -2.54759 288.332 -2.56136 265.68 10.4107L163.301 69.0398L162.605 68.6404L265.342 9.81168C288.202 -3.27744 316.604 -3.27056 339.456 9.83234L442.772 69.0742C456.928 77.1921 466.127 91.8304 467.456 107.935C467.242 106.462 466.829 105.05 466.23 103.728H466.237Z" fill="white"/>
<path d="M317.595 300.141V304.727L170.282 220.849L175.722 218.776L317.595 300.141Z" fill="black"/>
<path d="M176.094 87.713L192.943 97.3594C186.822 97.6693 186.746 100.052 186.553 105.856L186.525 106.662C186.333 112.17 186.45 168.699 186.505 192.839C186.519 198.657 186.525 202.733 186.525 203.993C186.525 210.638 188.901 214.363 202.245 222.012C205.212 223.713 211.946 227.603 220.677 232.644C250.064 249.616 304.761 281.206 310.015 283.712C312.067 284.69 313.795 285.179 315.179 285.179C315.826 285.179 316.398 285.069 316.887 284.855C317.176 284.732 317.403 284.58 317.589 284.422V299.356L176.094 218.205V87.713Z" fill="black"/>
<path d="M216.291 262.299C215.657 261.906 214.955 261.686 214.253 261.624L218.212 259.607C219.458 258.939 220.918 258.98 222.116 259.731C225.779 262.003 227.968 266.093 227.831 270.403C227.789 271.608 227.218 272.703 226.254 273.412L221.689 275.774C222.074 275.119 222.302 274.376 222.329 273.577C222.474 269.026 220.16 264.702 216.284 262.299H216.291Z" fill="black"/>
<path d="M197.727 251.372C197.094 250.979 196.398 250.759 195.689 250.697L199.648 248.68C200.895 248.012 202.354 248.053 203.552 248.797C207.215 251.069 209.405 255.159 209.267 259.469C209.226 260.674 208.654 261.769 207.691 262.478L203.126 264.84C203.511 264.185 203.738 263.442 203.766 262.643C203.91 258.092 201.597 253.768 197.72 251.365L197.727 251.372Z" fill="black"/>
<path d="M188.226 237.456V248.156L182.153 250.828V239.915L188.226 237.456Z" fill="black"/>
<path d="M181.464 250.759L166.447 241.959V231.459L181.464 239.887V250.759Z" fill="black"/>
<path d="M219.692 277.578L219.83 277.516C219.857 277.502 219.885 277.495 219.912 277.481C219.926 277.474 219.94 277.461 219.961 277.454L226.626 273.997C227.803 273.13 228.478 271.842 228.526 270.424C228.671 265.872 226.357 261.548 222.481 259.145C221.069 258.271 219.355 258.216 217.888 259.001L211.726 262.141C211.726 262.141 211.705 262.147 211.698 262.154C210.231 262.939 209.329 264.399 209.274 266.058C209.199 268.551 209.853 270.968 211.099 273.04L200.509 266.891C200.716 266.829 200.916 266.747 201.115 266.657L201.26 266.588C201.287 266.575 201.308 266.568 201.336 266.554C201.349 266.547 201.363 266.533 201.377 266.527L208.042 263.07C209.219 262.202 209.894 260.915 209.942 259.497C210.087 254.945 207.773 250.621 203.897 248.218C202.485 247.344 200.771 247.289 199.304 248.074L193.149 251.213C193.149 251.213 193.128 251.22 193.114 251.227C191.655 252.012 190.746 253.472 190.691 255.131C190.608 257.713 191.317 260.22 192.653 262.34L162.929 245.085V69.632L327.125 163.776V340.414L219.217 277.763C219.368 277.708 219.513 277.646 219.664 277.578H219.692ZM165.766 242.352L181.471 251.558V251.888L181.795 251.744L188.722 248.693L188.928 248.604V236.747L173.195 227.899L173.043 227.955L165.766 230.633L165.291 230.805L165.766 231.074V242.352ZM318.291 168.306L318.119 168.21L169.146 82.9345V220.987L318.291 305.911V168.313V168.306Z" fill="black"/>
<path d="M181.836 239.302L166.922 230.936L173.126 228.657L187.778 236.899L181.836 239.302Z" fill="black"/>
<path d="M175.405 218.157L169.821 220.284V84.1188L175.405 87.3205V218.157Z" fill="black"/>
<path d="M219.245 277.763L327.152 340.414V341.212L218.274 277.998C218.604 277.956 218.928 277.881 219.245 277.763Z" fill="white"/>
<path d="M327.497 341.412L327.841 341.212V341.612L327.497 341.412Z" fill="white"/>
<path d="M163.3 69.0398L327.496 163.184L327.152 163.383V163.783L162.956 69.6388V245.085L192.68 262.34C192.983 262.822 193.314 263.277 193.679 263.717L162.275 245.485V68.4477L162.619 68.6473L163.314 69.0467L163.3 69.0398Z" fill="white"/>
<path d="M200.516 266.891L211.106 273.04C211.382 273.501 211.685 273.942 212.022 274.369L199.484 267.084C199.835 267.064 200.179 266.995 200.523 266.891H200.516Z" fill="white"/>
<path d="M169.133 82.9345L318.105 168.21L318.277 168.306V305.904L169.133 220.98V82.9345ZM169.601 221.104L170.283 220.842L317.596 304.72V300.134L317.768 300.231L318.112 299.632L317.596 299.335V284.401C318.105 283.967 318.264 283.506 318.27 283.478L317.609 283.272C317.609 283.272 317.609 283.286 317.596 283.313V168.699L194.092 97.9997C194.092 97.9997 194.148 97.9997 194.182 97.9997V97.3112C193.741 97.3112 193.335 97.325 192.949 97.3456L176.101 87.6992V87.1071H175.412V87.3067L169.828 84.1119V220.277L169.36 220.456L169.608 221.097L169.601 221.104Z" fill="white"/>
<path d="M175.873 218.714L175.632 218.074L175.405 218.157V87.3205V87.1208H176.094V87.713V218.198L317.595 299.349L318.112 299.645L317.767 300.237L317.595 300.141L175.722 218.776L175.873 218.714Z" fill="white"/>
<path d="M175.405 218.157L175.633 218.074L175.874 218.714L175.722 218.776L170.283 220.849L169.601 221.104L169.36 220.463L169.821 220.284L175.405 218.157Z" fill="white"/>
<path d="M444.638 272.531L327.841 340.414V163.783L444.252 97.1184C446.614 95.7689 449.203 95.0872 451.792 95.0872C454.381 95.0872 457.018 95.7758 459.393 97.1528C464.123 99.8932 466.953 104.802 466.953 110.269V233.759C466.953 249.671 458.409 264.53 444.645 272.524L444.638 272.531ZM415.361 271.656C415.361 272.806 415.96 273.839 416.959 274.417C417.454 274.706 418.005 274.844 418.549 274.844C419.093 274.844 419.651 274.699 420.146 274.41L453.265 255.159C455.338 253.954 456.625 251.716 456.625 249.32V206.754C456.625 205.605 456.033 204.579 455.035 204C454.043 203.422 452.852 203.422 451.854 203.993L418.756 222.949C416.662 224.147 415.361 226.392 415.361 228.808V271.656Z" fill="black"/>
<path d="M457.748 262.058C454.264 266.451 449.967 270.238 444.982 273.13L327.834 341.212L327.49 341.412L327.146 341.612V163.383L327.49 163.184L443.901 96.5193C448.865 93.6757 454.78 93.6963 459.731 96.5607C462.671 98.2682 464.902 100.775 466.23 103.728C466.829 105.05 467.243 106.462 467.456 107.935C467.566 108.7 467.628 109.485 467.628 110.276V233.766C467.628 243.929 464.192 253.665 458.168 261.514C458.03 261.7 457.878 261.879 457.741 262.058H457.748ZM466.947 146.218V110.276C466.947 104.802 464.124 99.9001 459.386 97.1597C457.011 95.7826 454.394 95.0941 451.785 95.0941C449.175 95.0941 446.607 95.7688 444.245 97.1253L327.834 163.79V340.427L444.631 272.544C458.388 264.55 466.94 249.692 466.94 233.78V146.232L466.947 146.218Z" fill="white"/>
<path d="M165.759 230.633V231.074L165.284 230.805L165.759 230.633Z" fill="white"/>
<path d="M188.226 248.156V237.456L188.701 237.271L188.446 236.63L187.778 236.899L173.126 228.657L173.278 228.602L173.037 227.955L173.188 227.906L188.914 236.747V248.604L188.715 248.693L188.432 248.06L188.226 248.156Z" fill="white"/>
<path d="M181.464 251.888V251.558L181.788 251.744L181.464 251.888Z" fill="white"/>
<path d="M181.677 239.364L181.939 240.004L182.153 239.914V250.828L181.829 250.972L181.464 250.759V239.887L166.447 231.459V231.115L166.922 230.936L181.836 239.302L181.677 239.364Z" fill="white"/>
<path d="M181.94 240.004L181.678 239.364L181.836 239.302L187.779 236.899L188.446 236.63L188.701 237.271L188.226 237.456L182.153 239.915L181.94 240.004Z" fill="white"/>
<path d="M165.759 230.633L173.037 227.955L173.278 228.602L173.126 228.657L166.923 230.936L166.448 231.115V231.459V241.959L181.465 250.759L181.829 250.972L182.153 250.828L188.226 248.156L188.433 248.06L188.715 248.693L181.788 251.744L181.465 251.558L165.759 242.352V231.074V230.633Z" fill="white"/>
<path d="M416.049 228.801C416.049 226.633 417.22 224.615 419.1 223.541L422.673 221.496V251.599L424.064 250.897V220.697L425.827 219.685V249.774L427.217 249.072V218.893L428.98 217.881V248.005L430.371 247.303V217.083L432.134 216.07V246.118L433.524 245.416V215.279L435.287 214.266V244.362L436.678 243.66V213.468L438.441 212.456V242.503L439.831 241.801V211.657L441.594 210.645V240.741L442.985 240.038V209.853L444.748 208.841V238.937L446.138 238.234V208.049L447.901 207.037V237.112L449.292 236.41V206.238L452.184 204.586C452.576 204.365 452.996 204.255 453.423 204.255C453.85 204.255 454.284 204.365 454.676 204.592C455.454 205.047 455.923 205.852 455.923 206.754V249.32C455.923 251.468 454.766 253.479 452.907 254.56L419.788 273.811C419.003 274.266 418.074 274.266 417.289 273.811C416.504 273.364 416.036 272.551 416.036 271.649V228.801H416.049ZM420.463 226.605C420.002 226.357 419.464 226.378 419.024 226.653C417.943 227.321 417.302 228.526 417.344 229.793C417.358 230.316 417.647 230.771 418.108 231.019C418.321 231.136 418.556 231.191 418.79 231.191C419.051 231.191 419.313 231.115 419.547 230.97C420.628 230.303 421.268 229.098 421.227 227.831C421.213 227.307 420.924 226.853 420.47 226.605H420.463ZM451.516 252.122C451.729 252.239 451.964 252.294 452.198 252.294C452.459 252.294 452.721 252.219 452.955 252.074C454.036 251.406 454.676 250.201 454.635 248.934C454.621 248.411 454.332 247.957 453.878 247.709C453.416 247.461 452.879 247.482 452.439 247.757C451.358 248.425 450.717 249.63 450.759 250.897C450.772 251.42 451.062 251.874 451.516 252.122ZM451.516 211.739C451.729 211.857 451.964 211.912 452.198 211.912C452.459 211.912 452.721 211.836 452.955 211.691C454.036 211.023 454.676 209.818 454.635 208.552C454.621 208.028 454.332 207.574 453.878 207.326C453.416 207.078 452.879 207.099 452.439 207.374C451.358 208.042 450.717 209.247 450.759 210.514C450.772 211.037 451.062 211.492 451.516 211.739ZM418.101 271.395C418.315 271.512 418.549 271.567 418.783 271.567C419.044 271.567 419.306 271.491 419.54 271.346C420.621 270.678 421.262 269.473 421.22 268.207C421.206 267.683 420.917 267.229 420.456 266.981C419.995 266.733 419.458 266.754 419.017 267.029C417.936 267.697 417.296 268.902 417.337 270.169C417.351 270.692 417.64 271.147 418.101 271.395Z" fill="black"/>
<path d="M418.755 222.942L451.853 203.987C452.852 203.415 454.043 203.422 455.034 203.993C456.026 204.572 456.625 205.598 456.625 206.748V249.313C456.625 251.709 455.337 253.947 453.265 255.152L420.146 274.403C419.644 274.693 419.1 274.837 418.549 274.837C417.998 274.837 417.461 274.693 416.958 274.41C415.96 273.839 415.361 272.806 415.361 271.649V228.801C415.361 226.385 416.662 224.14 418.755 222.942ZM417.296 273.811C418.081 274.266 419.01 274.259 419.795 273.811L452.914 254.56C454.773 253.479 455.93 251.468 455.93 249.32V206.754C455.93 205.852 455.461 205.047 454.683 204.592C454.291 204.365 453.864 204.255 453.43 204.255C452.996 204.255 452.576 204.365 452.191 204.586L449.299 206.238V206.031L447.908 206.789V207.037L446.145 208.049V207.856L444.755 208.614V208.841L442.992 209.853V209.66L441.601 210.417V210.645L439.838 211.657V211.416L438.448 212.173V212.449L436.685 213.461V213.275L435.294 214.032V214.26L433.531 215.272V215.031L432.141 215.788V216.063L430.378 217.076V216.917L428.987 217.675V217.874L427.224 218.887V218.687L425.834 219.444V219.678L424.071 220.69V220.511L422.68 221.269V221.489L419.107 223.534C417.227 224.608 416.056 226.626 416.056 228.795V271.642C416.056 272.544 416.524 273.357 417.309 273.804L417.296 273.811Z" fill="white"/>
<path d="M222.611 128.123V128.158L220.256 126.932L222.611 128.123Z" fill="#7000FF"/>
<path d="M424.064 250.897L422.673 251.599V221.496V221.276L424.064 220.518V220.697V250.897Z" fill="#C1C1C1"/>
<path d="M427.225 249.072L425.834 249.774V219.685V219.451L427.225 218.694V218.893V249.072Z" fill="#C1C1C1"/>
<path d="M430.378 247.303L428.987 248.005V217.881V217.682L430.378 216.924V217.083V247.303Z" fill="#C1C1C1"/>
<path d="M432.14 246.118V216.07V215.795L433.531 215.038V215.279V245.416L432.14 246.118Z" fill="#C1C1C1"/>
<path d="M435.301 244.362V214.266V214.039L436.692 213.282V213.468V243.66L435.301 244.362Z" fill="#C1C1C1"/>
<path d="M438.455 242.503V212.462V212.18L439.845 211.423V211.664V241.801L438.455 242.503Z" fill="#C1C1C1"/>
<path d="M441.608 240.748V210.652V210.424L442.999 209.667V209.853V240.045L441.608 240.748Z" fill="#C1C1C1"/>
<path d="M444.761 238.937V208.848V208.614L446.152 207.856V208.049V238.234L444.761 238.937Z" fill="#C1C1C1"/>
<path d="M447.922 237.112V207.037V206.789L449.313 206.032V206.245V236.41L447.922 237.112Z" fill="#C1C1C1"/>
<path d="M213.874 262.292C214.583 262.292 215.292 262.492 215.925 262.884C219.589 265.156 221.778 269.246 221.64 273.556C221.599 274.947 220.849 276.166 219.637 276.841L219.499 276.917C218.273 277.536 216.855 277.481 215.684 276.751C212.021 274.479 209.832 270.389 209.97 266.079C210.011 264.674 210.775 263.442 212.008 262.774L212.063 262.746C212.634 262.443 213.254 262.292 213.874 262.292Z" fill="black"/>
<path d="M219.912 277.474C219.912 277.474 219.857 277.495 219.829 277.509L219.954 277.44C219.954 277.44 219.926 277.461 219.905 277.468L219.912 277.474Z" fill="white"/>
<path d="M211.106 273.04C209.86 270.968 209.199 268.544 209.281 266.058C209.336 264.399 210.238 262.939 211.705 262.154C211.712 262.154 211.725 262.147 211.732 262.141L211.691 262.161L212.008 262.774C210.775 263.442 210.011 264.674 209.97 266.079C209.832 270.389 212.022 274.479 215.685 276.751C216.855 277.481 218.274 277.536 219.499 276.917L219.375 276.979L219.692 277.584C219.547 277.653 219.396 277.715 219.244 277.77C218.928 277.881 218.604 277.963 218.273 278.004C218.094 278.025 217.915 278.039 217.736 278.039C216.903 278.039 216.063 277.805 215.32 277.343C214.032 276.545 212.924 275.533 212.015 274.376C211.684 273.949 211.374 273.508 211.099 273.047L211.106 273.04Z" fill="white"/>
<path d="M221.648 273.556C221.785 269.246 219.596 265.156 215.933 262.884C215.299 262.492 214.59 262.292 213.881 262.292C213.261 262.292 212.648 262.443 212.07 262.746L214.26 261.631C214.969 261.693 215.664 261.906 216.298 262.306C220.167 264.709 222.488 269.033 222.343 273.584C222.315 274.383 222.088 275.126 221.703 275.78L219.644 276.848C220.856 276.173 221.606 274.954 221.648 273.563V273.556Z" fill="white"/>
<path d="M219.375 276.972L219.499 276.91L219.637 276.834L221.695 275.767L226.26 273.405C227.224 272.696 227.796 271.594 227.837 270.396C227.975 266.086 225.785 261.996 222.122 259.724C220.924 258.98 219.465 258.932 218.218 259.6L214.259 261.617L212.07 262.733L212.015 262.76L211.698 262.147L211.739 262.127L217.902 258.987C219.368 258.202 221.083 258.257 222.494 259.132C226.364 261.535 228.684 265.859 228.54 270.41C228.491 271.828 227.817 273.116 226.639 273.983L219.974 277.44L219.85 277.509L219.712 277.578L219.396 276.965L219.375 276.972Z" fill="white"/>
<path d="M197.362 251.957C201.026 254.229 203.215 258.319 203.077 262.629C203.036 264.02 202.279 265.246 201.067 265.914L200.943 265.976C199.717 266.602 198.292 266.547 197.122 265.817C193.458 263.545 191.269 259.455 191.407 255.145C191.448 253.74 192.212 252.508 193.445 251.84L193.493 251.812C194.732 251.165 196.171 251.213 197.362 251.95V251.957Z" fill="black"/>
<path d="M193.135 251.227C193.135 251.227 193.156 251.22 193.17 251.213L193.128 251.234L193.445 251.847C192.213 252.515 191.448 253.747 191.407 255.152C191.269 259.462 193.459 263.552 197.122 265.824C198.299 266.554 199.718 266.609 200.943 265.983L200.812 266.051L201.129 266.657C200.929 266.754 200.73 266.829 200.523 266.891C200.179 266.995 199.835 267.064 199.484 267.084C199.38 267.084 199.284 267.105 199.181 267.105C198.347 267.105 197.507 266.871 196.764 266.409C195.58 265.673 194.547 264.764 193.679 263.717C193.314 263.284 192.984 262.822 192.681 262.34C191.345 260.213 190.636 257.713 190.718 255.131C190.774 253.472 191.675 252.012 193.142 251.227H193.135Z" fill="white"/>
<path d="M201.343 266.547C201.343 266.547 201.294 266.568 201.266 266.582L201.384 266.52C201.384 266.52 201.356 266.54 201.343 266.547Z" fill="white"/>
<path d="M203.078 262.629C203.215 258.319 201.026 254.229 197.363 251.957C196.172 251.22 194.733 251.172 193.493 251.819L195.683 250.704C196.392 250.766 197.088 250.979 197.721 251.379C201.591 253.782 203.911 258.106 203.766 262.657C203.739 263.456 203.512 264.206 203.126 264.853L201.067 265.921C202.286 265.246 203.036 264.027 203.078 262.636V262.629Z" fill="white"/>
<path d="M200.813 266.045L200.943 265.976L201.067 265.914L203.126 264.846L207.691 262.485C208.655 261.776 209.227 260.681 209.268 259.476C209.406 255.166 207.216 251.076 203.553 248.804C202.355 248.06 200.895 248.012 199.649 248.686L195.69 250.704L193.5 251.819L193.452 251.847L193.135 251.234L193.177 251.213L199.332 248.074C200.799 247.289 202.513 247.344 203.925 248.218C207.794 250.621 210.115 254.945 209.97 259.497C209.922 260.915 209.247 262.202 208.07 263.07L201.405 266.526L201.288 266.588L201.143 266.664L200.826 266.051L200.813 266.045Z" fill="white"/>
<path d="M453.196 207.849C453.32 207.849 453.437 207.877 453.554 207.939C453.795 208.07 453.94 208.304 453.954 208.579C453.981 209.412 453.637 210.204 453.045 210.762V207.87C453.093 207.856 453.148 207.849 453.203 207.849H453.196Z" fill="white"/>
<path d="M451.84 211.14C451.599 211.01 451.455 210.776 451.441 210.5C451.413 209.667 451.757 208.875 452.35 208.317V211.209C452.177 211.244 451.998 211.23 451.833 211.14H451.84Z" fill="white"/>
<path d="M452.439 207.381C452.88 207.106 453.424 207.085 453.878 207.333C454.34 207.581 454.622 208.035 454.636 208.558C454.677 209.825 454.03 211.03 452.956 211.698C452.721 211.843 452.46 211.919 452.198 211.919C451.964 211.919 451.73 211.863 451.517 211.746C451.055 211.499 450.773 211.044 450.759 210.521C450.718 209.254 451.365 208.049 452.439 207.381ZM453.045 211.306V210.762C453.637 210.204 453.981 209.412 453.954 208.579C453.947 208.304 453.796 208.07 453.555 207.939C453.444 207.877 453.32 207.849 453.197 207.849C453.141 207.849 453.093 207.863 453.038 207.87V207.67H452.35V208.317C451.757 208.875 451.413 209.667 451.441 210.5C451.448 210.776 451.599 211.01 451.84 211.14C451.998 211.23 452.184 211.244 452.357 211.209V211.306H452.701H453.045Z" fill="black"/>
<path d="M452.7 211.306H452.356V211.209V208.317V207.67H453.044V207.87V210.762V211.306H452.7Z" fill="black"/>
<path d="M418.425 230.413C418.184 230.282 418.039 230.048 418.025 229.772C417.998 228.939 418.342 228.147 418.934 227.59V230.482C418.762 230.516 418.583 230.502 418.425 230.413Z" fill="white"/>
<path d="M419.782 227.128C419.906 227.128 420.023 227.156 420.14 227.218C420.381 227.349 420.525 227.583 420.539 227.858C420.567 228.691 420.223 229.483 419.63 230.041V227.149C419.679 227.135 419.734 227.128 419.789 227.128H419.782Z" fill="white"/>
<path d="M419.541 230.977C419.306 231.122 419.045 231.198 418.783 231.198C418.549 231.198 418.315 231.143 418.102 231.025C417.64 230.778 417.358 230.323 417.337 229.8C417.296 228.533 417.943 227.328 419.017 226.66C419.458 226.385 420.002 226.364 420.456 226.612C420.918 226.86 421.2 227.314 421.214 227.838C421.255 229.104 420.608 230.309 419.534 230.977H419.541ZM418.935 226.949V227.597C418.342 228.154 417.998 228.946 418.026 229.779C418.033 230.055 418.184 230.289 418.425 230.42C418.583 230.509 418.769 230.523 418.935 230.488V230.585H419.279H419.623V230.048C420.215 229.49 420.56 228.698 420.532 227.865C420.525 227.59 420.374 227.356 420.133 227.225C420.023 227.163 419.899 227.135 419.775 227.135C419.72 227.135 419.671 227.149 419.616 227.156V226.956H419.272H418.928L418.935 226.949Z" fill="black"/>
<path d="M419.286 226.949H419.63V227.149V230.041V230.578H419.286H418.942V230.482V227.59V226.949H419.286Z" fill="black"/>
<path d="M451.447 250.883C451.413 249.857 451.936 248.886 452.804 248.349C452.928 248.273 453.065 248.232 453.203 248.232C453.224 248.232 453.251 248.232 453.272 248.239L451.523 251.172C451.482 251.083 451.447 250.979 451.447 250.876V250.883Z" fill="white"/>
<path d="M453.953 248.962C453.988 249.988 453.465 250.959 452.597 251.496C452.439 251.592 452.253 251.627 452.074 251.592L453.85 248.604C453.912 248.707 453.947 248.831 453.953 248.962Z" fill="white"/>
<path d="M452.439 247.764C452.88 247.488 453.424 247.475 453.878 247.716C454.34 247.964 454.622 248.418 454.636 248.941C454.677 250.208 454.03 251.413 452.956 252.081C452.721 252.226 452.46 252.301 452.198 252.301C451.964 252.301 451.73 252.246 451.517 252.129C451.055 251.881 450.773 251.427 450.759 250.904C450.718 249.637 451.365 248.432 452.439 247.764ZM451.785 252.088L452.074 251.599C452.253 251.627 452.439 251.599 452.598 251.503C453.465 250.966 453.988 249.995 453.954 248.969C453.954 248.838 453.913 248.721 453.851 248.611L454.209 248.012L453.913 247.833L453.617 247.654L453.272 248.239C453.272 248.239 453.224 248.232 453.203 248.232C453.066 248.232 452.928 248.273 452.804 248.349C451.937 248.886 451.413 249.857 451.448 250.883C451.448 250.986 451.482 251.089 451.523 251.179L451.193 251.73L451.785 252.081V252.088Z" fill="black"/>
<path d="M451.523 251.179L453.265 248.239L453.616 247.661L453.912 247.833L454.208 248.012L453.85 248.611L452.074 251.599L451.785 252.081L451.192 251.73L451.523 251.179Z" fill="black"/>
<path d="M419.182 270.775C418.948 270.919 418.666 270.926 418.432 270.802C418.191 270.672 418.046 270.431 418.032 270.162C418.019 269.68 418.129 269.205 418.335 268.785L419.898 270.134C419.699 270.382 419.458 270.603 419.182 270.775Z" fill="white"/>
<path d="M419.389 267.621C419.513 267.546 419.65 267.504 419.788 267.504C419.912 267.504 420.029 267.532 420.146 267.594C420.387 267.725 420.532 267.966 420.546 268.234C420.559 268.689 420.463 269.136 420.27 269.535L418.728 268.2C418.921 267.979 419.141 267.78 419.396 267.614L419.389 267.621Z" fill="white"/>
<path d="M419.024 267.036C419.465 266.761 420.009 266.747 420.463 266.988C420.925 267.236 421.207 267.69 421.228 268.213C421.269 269.48 420.622 270.685 419.548 271.353C419.313 271.498 419.052 271.573 418.79 271.573C418.556 271.573 418.322 271.518 418.109 271.401C417.647 271.153 417.365 270.699 417.344 270.176C417.303 268.909 417.95 267.704 419.024 267.036ZM417.978 268.475L418.336 268.785C418.122 269.205 418.012 269.673 418.033 270.162C418.04 270.437 418.191 270.671 418.432 270.802C418.673 270.933 418.955 270.919 419.183 270.775C419.465 270.603 419.699 270.382 419.899 270.134L420.14 270.341L420.587 269.818L420.264 269.535C420.45 269.136 420.553 268.689 420.539 268.234C420.532 267.959 420.381 267.725 420.14 267.594C420.03 267.532 419.906 267.504 419.782 267.504C419.644 267.504 419.506 267.546 419.382 267.621C419.128 267.78 418.907 267.979 418.714 268.207L418.425 267.959L418.198 268.22L417.971 268.482L417.978 268.475Z" fill="black"/>
<path d="M418.721 268.207L420.263 269.535L420.587 269.818L420.139 270.341L419.898 270.128L418.335 268.785L417.977 268.475L418.205 268.213L418.432 267.952L418.721 268.207Z" fill="black"/>
<path d="M303.715 439.921V429.511C303.715 429.4 303.701 429.297 303.694 429.187C303.584 427.748 302.778 426.522 301.463 425.868C300.051 425.166 298.461 425.31 297.201 426.261L224.636 480.855L224.223 480.304L216.098 486.418L296.788 425.71C298.241 424.615 300.148 424.443 301.773 425.255C302.399 425.572 302.936 426.006 303.356 426.529C303.962 427.28 304.327 428.216 304.389 429.214C304.389 429.318 304.41 429.414 304.41 429.517V439.928H303.721L303.715 439.921Z" fill="white"/>
<path d="M214.404 488.539C210.431 491.527 208.063 496.278 208.063 501.249V502.434C208.063 501.126 207.897 499.831 207.594 498.585C208.283 494.398 210.562 490.563 213.991 487.981L216.098 486.398L224.223 480.283L224.636 480.834L214.411 488.532L214.404 488.539Z" fill="white"/>
<path d="M207.594 498.592C207.897 499.838 208.062 501.132 208.062 502.441V506.51L207.704 506.744L207.374 506.551V502.441C207.374 496.829 204.365 491.576 199.531 488.725L198.285 487.995L195.476 486.343L189.782 482.996L190.133 482.404L195.827 485.75L199.883 488.133C203.8 490.439 206.561 494.261 207.601 498.592H207.594Z" fill="white"/>
<path d="M207.367 507.343L207.725 507.55L207.904 507.433L208.056 507.329V517.885V518.298V518.656H207.367V518.298V517.885V507.343Z" fill="white"/>
<path d="M207.698 506.744L208.056 506.503L303.715 442.985L303.866 442.882L304.245 443.453L303.715 443.812L208.056 507.329L207.905 507.433L207.725 507.55L207.367 507.343L0.688721 388.845L0.179199 388.549L0.516571 387.95L0.688721 388.054L207.367 506.551L207.698 506.744Z" fill="white"/>
<path d="M184.824 392.02L184.652 391.923V385.809L195.187 377.884L208.758 385.719L208.93 385.816V391.944L198.396 399.862L184.818 392.026L184.824 392.02ZM208.242 391.6V386.704L208.793 386.291L208.379 385.74L207.966 386.05L195.235 378.703L185.616 385.94L185.169 385.678L184.824 386.277L185.341 386.573V391.524L198.031 398.85V399.449H198.719V398.76L208.242 391.6Z" fill="white"/>
<path d="M198.03 393.534V393.899L185.341 386.573L184.824 386.277L185.169 385.685L185.616 385.94L198.347 393.293L198.03 393.534Z" fill="white"/>
<path d="M198.031 399.449V398.85V393.899V393.534L198.347 393.293L207.966 386.057L208.379 385.74L208.792 386.291L208.242 386.704L198.719 393.872V398.76V399.449H198.031Z" fill="white"/>
<path d="M163.783 379.901L163.611 379.805V373.691L174.145 365.766L187.717 373.601L187.889 373.698V379.826L177.354 387.744L163.783 379.908V379.901ZM187.2 379.481V374.586L187.751 374.173L187.338 373.622L186.925 373.932L174.194 366.585L164.575 373.822L164.127 373.56L163.783 374.159L164.299 374.455V379.406L176.989 386.732V387.331H177.678V386.642L187.207 379.481H187.2Z" fill="white"/>
<path d="M176.989 381.409V381.781L164.299 374.455L163.783 374.159L164.127 373.56L164.574 373.821L177.305 381.168L176.989 381.409Z" fill="white"/>
<path d="M176.989 387.331V386.732V381.781V381.409L177.306 381.168L186.924 373.939L187.338 373.622L187.751 374.173L187.2 374.586L177.677 381.753V386.635V387.331H176.989Z" fill="white"/>
<path d="M142.741 367.783L142.569 367.687V361.572L153.103 353.647L166.674 361.483L166.846 361.579V367.707L156.312 375.625L142.741 367.79V367.783ZM166.158 367.363V362.468L166.709 362.054L166.296 361.504L165.883 361.813L153.151 354.467L143.533 361.703L143.085 361.442L142.741 362.041L143.257 362.337V367.287L155.947 374.613V375.212H156.635V374.524L166.165 367.363H166.158Z" fill="white"/>
<path d="M155.947 369.291V369.663L143.257 362.337L142.741 362.041L143.085 361.442L143.54 361.703L156.264 369.05L155.947 369.291Z" fill="white"/>
<path d="M155.947 375.206V374.613V369.663V369.291L156.264 369.05L165.883 361.813L166.296 361.504L166.716 362.054L166.165 362.468L156.636 369.635V374.517V375.206H155.947Z" fill="white"/>
<path d="M121.699 355.665L121.527 355.568V349.454L132.061 341.529L145.633 349.365L145.805 349.461V355.589L135.27 363.507L121.699 355.672V355.665ZM145.116 355.245V350.349L145.667 349.936L145.254 349.385L144.841 349.695L132.11 342.348L122.491 349.585L122.043 349.323L121.699 349.922L122.215 350.218V355.169L134.905 362.495V363.094H135.594V362.406L145.116 355.245Z" fill="white"/>
<path d="M134.905 357.173V357.545L122.216 350.218L121.699 349.915L122.044 349.323L122.498 349.585L135.222 356.932L134.905 357.173Z" fill="white"/>
<path d="M134.905 363.087V362.495V357.544V357.173L135.222 356.932L144.841 349.695L145.261 349.385L145.674 349.936L145.123 350.349L135.594 357.517V362.399V363.087H134.905Z" fill="white"/>
<path d="M100.664 343.547L100.492 343.45V337.336L111.027 329.411L124.598 337.246L124.77 337.343V343.471L114.235 351.389L100.664 343.553V343.547ZM124.081 343.127V338.231L124.632 337.818L124.219 337.267L123.806 337.577L111.075 330.23L101.456 337.467L101.008 337.205L100.664 337.804L101.18 338.1V343.051L113.87 350.377V350.976H114.559V350.287L124.081 343.127Z" fill="white"/>
<path d="M113.864 345.054V345.419L101.181 338.093L100.664 337.797L101.009 337.205L101.456 337.467L114.187 344.813L113.864 345.054Z" fill="white"/>
<path d="M113.864 350.969V350.37V345.419V345.054L114.187 344.813L123.799 337.577L124.219 337.267L124.633 337.811L124.082 338.231L114.552 345.399V350.28V350.969H113.864Z" fill="white"/>
<path d="M80.917 332.151L80.7448 332.055V325.941L91.2795 318.015L104.851 325.851L105.023 325.947V332.075L94.4881 339.994L80.9101 332.158L80.917 332.151ZM104.334 331.731V326.836L104.885 326.423L104.472 325.872L104.059 326.182L91.3277 318.835L81.7088 326.071L81.2612 325.81L80.917 326.409L81.4334 326.705V331.655L94.1231 338.981V339.581H94.8117V338.892L104.334 331.731Z" fill="white"/>
<path d="M94.1232 333.659V334.031L81.4334 326.705L80.917 326.409L81.2613 325.81L81.7089 326.071L94.4399 333.418L94.1232 333.659Z" fill="white"/>
<path d="M94.1231 339.574V338.981V334.031V333.659L94.4399 333.418L104.052 326.182L104.472 325.872L104.885 326.423L104.334 326.836L94.8117 334.003V338.885V339.574H94.1231Z" fill="white"/>
<path d="M226.185 418.267L226.357 418.363V424.491L215.822 432.409L202.251 424.574L202.079 424.477V418.363L212.614 410.438L226.185 418.274V418.267ZM202.251 418.824L202.768 419.121V424.071L215.457 431.397V431.996H216.146V431.308L225.675 424.147V419.251L226.226 418.838L225.813 418.287L225.4 418.597L212.669 411.251L203.05 418.487L202.602 418.225L202.258 418.824H202.251Z" fill="white"/>
<path d="M215.768 425.841L215.451 426.075V426.447L202.761 419.121L202.245 418.824L202.589 418.232L203.043 418.487L215.768 425.841Z" fill="white"/>
<path d="M215.451 426.075L215.767 425.841L225.386 418.604L225.806 418.287L226.219 418.838L225.668 419.251L216.139 426.419V431.308V431.996H215.451V431.397V426.447V426.075Z" fill="white"/>
<path d="M205.247 406.204L205.419 406.3V412.428L194.884 420.346L181.313 412.51L181.141 412.414V406.3L191.675 398.375L205.247 406.21V406.204ZM181.313 406.761L181.829 407.057V412.008L194.519 419.334V419.933H195.208V419.244L204.737 412.084V407.188L205.288 406.775L204.875 406.224L204.462 406.534L191.731 399.187L182.112 406.424L181.664 406.162L181.32 406.761H181.313Z" fill="white"/>
<path d="M194.829 413.777L194.512 414.018V414.39L181.822 407.064L181.306 406.761L181.65 406.169L182.105 406.431L194.829 413.777Z" fill="white"/>
<path d="M194.512 414.018L194.829 413.777L204.448 406.541L204.868 406.231L205.281 406.782L204.73 407.195L195.201 414.363V419.244V419.933H194.512V419.341V414.39V414.018Z" fill="white"/>
<path d="M184.308 394.147L184.48 394.244V400.372L173.946 408.29L160.375 400.454L160.203 400.358V394.244L170.737 386.319L184.308 394.154V394.147ZM160.375 394.705L160.891 395.001V399.952L173.581 407.278V407.877H174.269V407.188L183.792 400.027V395.132L184.343 394.719L183.93 394.168L183.516 394.478L170.785 387.131L161.167 394.368L160.719 394.106L160.375 394.705Z" fill="white"/>
<path d="M173.897 401.714L173.574 401.955V402.327L160.884 395.001L160.375 394.705L160.719 394.106L161.166 394.368L173.897 401.714Z" fill="white"/>
<path d="M173.574 401.955L173.898 401.714L183.51 394.485L183.93 394.168L184.343 394.719L183.792 395.132L174.263 402.3V407.181V407.877H173.574V407.278V402.327V401.955Z" fill="white"/>
<path d="M163.37 382.084L163.542 382.18V388.308L153.007 396.227L139.436 388.391L139.264 388.295V382.18L149.799 374.255L163.37 382.091V382.084ZM139.436 382.642L139.953 382.938V387.888L152.642 395.214V395.813H153.331V395.125L162.853 387.964V383.069L163.404 382.655L162.991 382.105L162.578 382.415L149.847 375.068L140.228 382.304L139.781 382.043L139.436 382.642Z" fill="white"/>
<path d="M152.959 389.658L152.635 389.899V390.264L139.945 382.945L139.436 382.642L139.78 382.05L140.228 382.311L152.959 389.658Z" fill="white"/>
<path d="M152.635 389.899L152.958 389.658L162.57 382.421L162.99 382.112L163.404 382.655L162.853 383.075L153.323 390.243V395.125V395.813H152.635V395.214V390.264V389.899Z" fill="white"/>
<path d="M142.431 370.028L142.603 370.124V376.252L132.069 384.17L118.498 376.335L118.325 376.238V370.124L128.86 362.199L142.431 370.035V370.028ZM118.498 370.585L119.014 370.882V375.832L131.704 383.158V383.757H132.392V383.069L141.915 375.908V371.012L142.466 370.599L142.052 370.048L141.639 370.358L128.908 363.011L119.289 370.248L118.842 369.986L118.498 370.585Z" fill="white"/>
<path d="M132.02 377.595L131.697 377.836V378.208L119.014 370.881L118.497 370.585L118.842 369.986L119.289 370.248L132.02 377.595Z" fill="white"/>
<path d="M131.697 377.836L132.02 377.595L141.639 370.365L142.052 370.048L142.465 370.599L141.915 371.012L132.385 378.18V383.062V383.75H131.697V383.158V378.207V377.836Z" fill="white"/>
<path d="M121.665 358.068L121.54 357.992L121.665 358.068Z" fill="white"/>
<path d="M97.5731 358.502L97.5593 358.522L98.0757 358.818V363.741L97.3871 363.342V358.391L97.5731 358.502Z" fill="white"/>
<path d="M120.976 363.845L111.454 371.005L120.976 363.845Z" fill="white"/>
<path d="M97.5591 364.265L97.3869 364.168V364.134L110.848 371.942L97.5591 364.265Z" fill="white"/>
<path d="M107.97 350.955L98.3782 358.171L97.731 357.792L107.343 350.563L120.701 358.302L107.97 350.955Z" fill="white"/>
<path d="M98.0754 358.818L97.559 358.522L97.5728 358.502L110.765 366.144L98.0754 358.818Z" fill="white"/>
<path d="M97.3869 364.134L90.3362 360.044V353.93L100.871 346.005L121.548 357.992L121.672 358.061V364.189L111.137 372.107L110.848 371.942L97.3869 364.141V364.134ZM91.3002 354.067L90.8526 353.806L90.5084 354.405L91.0248 354.701V359.651L97.3869 363.342L98.0754 363.741L110.765 371.095V371.694H111.454V371.005L120.983 363.845V358.949L121.534 358.536L121.121 357.985L120.708 358.295L107.357 350.556L100.926 346.831L91.3071 354.067H91.3002Z" fill="white"/>
<path d="M98.3782 358.171L111.082 365.538L110.765 365.779V366.144L97.5727 358.502L97.3867 358.391L91.0178 354.701L90.5013 354.405L90.8525 353.806L91.3001 354.067L97.731 357.792L98.3782 358.171Z" fill="white"/>
<path d="M110.765 366.144V365.779L111.082 365.538L120.701 358.302L121.114 357.985L121.527 358.536L120.977 358.956L111.454 366.124V371.005V371.694H110.765V371.095V366.144Z" fill="white"/>
<path d="M223.011 430.419L233.545 422.494L254.842 434.771V440.899L244.307 448.81L223.004 436.534V430.419H223.011ZM223.699 436.134L243.942 447.805V448.404H244.631V447.716L254.16 440.555V435.659L254.711 435.246L254.298 434.695L253.885 435.005L233.6 423.314L223.981 430.55L223.527 430.289L223.183 430.888L223.699 431.184V436.134Z" fill="white"/>
<path d="M223.527 430.296L223.982 430.557L244.259 442.249L243.942 442.49V442.861L223.699 431.191L223.183 430.895L223.527 430.296Z" fill="white"/>
<path d="M243.942 442.49L244.259 442.249L253.878 435.012L254.298 434.702L254.711 435.253L254.16 435.666L244.631 442.834V447.716V448.404H243.942V447.812V442.861V442.49Z" fill="white"/>
<path d="M188.543 418.942L188.715 419.038V425.166L178.18 433.084L164.609 425.249L164.437 425.152V419.038L174.972 411.113L188.543 418.948V418.942ZM164.609 419.499L165.125 419.795V424.746L177.815 432.072V432.671H178.504V431.982L188.033 424.822V419.926L188.584 419.513L188.171 418.962L187.758 419.272L175.027 411.925L165.408 419.162L164.96 418.9L164.616 419.499H164.609Z" fill="white"/>
<path d="M178.125 426.509L177.808 426.75V427.121L165.118 419.795L164.602 419.499L164.946 418.9L165.401 419.162L178.125 426.509Z" fill="white"/>
<path d="M177.808 426.75L178.125 426.509L187.744 419.279L188.164 418.962L188.577 419.513L188.026 419.926L178.497 427.094V431.982V432.671H177.808V432.072V427.121V426.75Z" fill="white"/>
<path d="M237.773 447.344L237.945 447.44V453.568L227.411 461.486L213.84 453.651L213.667 453.554V447.44L224.202 439.515L237.773 447.351V447.344ZM213.84 447.901L214.356 448.198V453.148L227.046 460.474V461.073H227.734V460.385L237.264 453.224V448.328L237.814 447.915L237.401 447.364L236.988 447.674L224.257 440.328L214.638 447.564L214.191 447.302L213.846 447.901H213.84Z" fill="white"/>
<path d="M227.355 454.918L227.039 455.152V455.524L214.349 448.198L213.833 447.901L214.177 447.309L214.631 447.564L227.355 454.918Z" fill="white"/>
<path d="M227.039 455.152L227.355 454.918L236.974 447.681L237.394 447.364L237.807 447.915L237.257 448.335L227.727 455.496V460.385V461.073H227.039V460.474V455.524V455.152Z" fill="white"/>
<path d="M143.836 413.178L143.664 413.082V406.968L154.198 399.043L167.769 406.878L167.941 406.975V413.103L157.407 421.021L143.836 413.185V413.178ZM167.253 412.758V407.863L167.804 407.45L167.391 406.899L166.977 407.209L154.246 399.862L144.627 407.099L144.18 406.837L143.836 407.436L144.352 407.732V412.683L157.042 420.009V420.608H157.73V419.919L167.26 412.758H167.253Z" fill="white"/>
<path d="M157.042 414.686V415.051L144.352 407.725L143.836 407.429L144.18 406.837L144.634 407.092L157.359 414.445L157.042 414.686Z" fill="white"/>
<path d="M157.042 420.601V420.002V415.051V414.686L157.359 414.445L166.978 407.209L167.391 406.899L167.811 407.443L167.26 407.863L157.731 415.031V419.912V420.601H157.042Z" fill="white"/>
<path d="M123.069 401.108L122.897 401.012V394.898L133.432 386.973L147.003 394.808L147.175 394.905V401.033L136.64 408.951L123.062 401.115L123.069 401.108ZM146.487 400.688V395.793L147.037 395.38L146.624 394.829L146.211 395.139L133.48 387.792L123.861 395.029L123.414 394.767L123.069 395.366L123.586 395.662V400.613L136.276 407.939V408.538H136.964V407.849L146.487 400.688Z" fill="white"/>
<path d="M136.276 402.616V402.988L123.586 395.662L123.069 395.366L123.414 394.767L123.861 395.029L136.592 402.375L136.276 402.616Z" fill="white"/>
<path d="M136.275 408.531V407.939V402.988V402.616L136.592 402.375L146.211 395.139L146.624 394.829L147.037 395.38L146.486 395.793L136.964 402.961V407.842V408.531H136.275Z" fill="white"/>
<path d="M102.303 389.038L102.131 388.942V382.828L112.665 374.903L126.236 382.738L126.408 382.835V388.963L115.874 396.881L102.303 389.045V389.038ZM125.72 388.618V383.723L126.271 383.31L125.858 382.759L125.444 383.069L112.713 375.722L103.095 382.958L102.647 382.697L102.303 383.296L102.819 383.592V388.543L115.509 395.869V396.468H116.197V395.779L125.72 388.618Z" fill="white"/>
<path d="M115.509 390.546V390.918L102.82 383.592L102.303 383.296L102.648 382.697L103.095 382.958L115.826 390.312L115.509 390.546Z" fill="white"/>
<path d="M115.509 396.468V395.869V390.918V390.546L115.826 390.312L125.445 383.076L125.858 382.759L126.271 383.31L125.72 383.723L116.198 390.89V395.779V396.468H115.509Z" fill="white"/>
<path d="M105.47 370.668L105.642 370.764V376.892L95.1077 384.811L81.5366 376.975L81.3644 376.879V370.764L91.8991 362.839L105.47 370.675V370.668ZM81.5366 371.226L82.053 371.522V376.472L94.7428 383.798V384.398H95.4313V383.709L104.954 376.548V371.653L105.505 371.24L105.091 370.689L104.678 370.999L91.9473 363.652L82.3284 370.888L81.8809 370.627L81.5366 371.226Z" fill="white"/>
<path d="M95.0596 378.242L94.736 378.483V378.848L82.0531 371.529L81.5367 371.226L81.881 370.634L82.3285 370.895L95.0596 378.242Z" fill="white"/>
<path d="M94.7361 378.483L95.0597 378.242L104.672 371.005L105.092 370.696L105.505 371.24L104.954 371.66L95.4247 378.827V383.709V384.398H94.7361V383.798V378.848V378.483Z" fill="white"/>
<path d="M195.229 445.932L195.401 446.029V452.157L184.866 460.068L93.7998 407.622L93.6277 407.525V401.411L104.162 393.486L195.229 445.932ZM93.8067 401.879H93.8136L93.8067 401.9L94.3231 402.196V407.126L184.501 459.063V459.655H185.19V458.966L194.712 451.805V446.91L195.263 446.497L194.85 445.946L194.437 446.263L104.217 394.299L94.5985 401.535L94.1441 401.274L93.7998 401.873L93.8067 401.879Z" fill="white"/>
<path d="M184.818 453.506L184.501 453.747V454.119L113.175 413.034L113.513 412.449L94.1508 401.301L93.8134 401.886L93.8066 401.88L94.1508 401.287L94.5984 401.542L184.818 453.506Z" fill="white"/>
<path d="M184.501 453.747L184.818 453.506L194.436 446.27L194.85 445.96L195.263 446.504L194.712 446.924L185.189 454.091V458.973V459.662H184.501V459.07V454.119V453.747Z" fill="white"/>
<path d="M185.369 431.101L195.903 423.176L217.2 435.453V441.581L206.665 449.499L185.362 437.222V431.108L185.369 431.101ZM186.057 436.816L206.3 448.487V449.086H206.989V448.397L216.518 441.236V436.341L217.069 435.928L216.656 435.377L216.243 435.687L195.958 423.995L186.339 431.232L185.885 430.97L185.541 431.569L186.057 431.865V436.816Z" fill="white"/>
<path d="M185.885 430.977L186.332 431.239L206.617 442.93L206.3 443.171V443.543L186.057 431.872L185.541 431.569L185.885 430.977Z" fill="white"/>
<path d="M206.3 443.171L206.617 442.93L216.236 435.694L216.649 435.377L217.062 435.928L216.511 436.348L206.989 443.509V448.397V449.086H206.3V448.487V443.543V443.171Z" fill="white"/>
<path d="M94.0337 348.249L83.4991 356.167L63.7655 344.807V338.692L74.3002 330.767L94.0337 342.128V348.256V348.249ZM93.4829 342.045L93.0698 342.355L74.3553 331.587L64.7364 338.823L64.282 338.561L63.9377 339.16L64.4541 339.457V344.407L83.1273 355.155V355.747H83.8158V355.059L93.3383 347.898V343.003L93.8891 342.589L93.476 342.039L93.4829 342.045Z" fill="white"/>
<path d="M83.1273 349.84V350.212L64.4542 339.457L63.9378 339.16L64.282 338.561L64.7364 338.823L83.4509 349.599L83.1273 349.84Z" fill="white"/>
<path d="M83.8158 350.184V355.066V355.754H83.1273V355.162V350.212V349.84L83.4509 349.599L93.0629 342.362L93.4829 342.052L93.896 342.596L93.3452 343.016L83.8158 350.184Z" fill="white"/>
<path d="M60.7222 373.278L50.1875 381.196L30.454 369.835V363.721L40.9887 355.796L60.7222 367.156V373.284V373.278ZM60.1713 367.074L59.7582 367.391L41.0438 356.615L31.4248 363.852L30.9704 363.59L30.6262 364.189L31.1426 364.485V369.436L49.8157 380.184V380.776H50.5043V380.087L60.0268 372.926V368.031L60.5776 367.618L60.1645 367.067L60.1713 367.074Z" fill="white"/>
<path d="M49.8225 374.868V375.233L31.1493 364.485L30.6329 364.189L30.9772 363.59L31.4247 363.851L50.1392 374.627L49.8225 374.868Z" fill="white"/>
<path d="M50.5114 375.205V380.094V380.783H49.8228V380.184V375.233V374.868L50.1395 374.627L59.7584 367.391L60.1716 367.074L60.5916 367.625L60.0338 368.045L50.5114 375.205Z" fill="white"/>
<path d="M113.512 412.449L113.175 413.034L113.168 413.048L94.3229 402.196L93.8065 401.9L93.8133 401.886L94.1507 401.301L113.512 412.449Z" fill="white"/>
<path d="M205.763 404.104L205.591 404.007V397.893L216.125 389.968L229.696 397.803L229.868 397.9V404.028L219.334 411.946L205.763 404.11V404.104ZM229.18 403.683V398.788L229.731 398.375L229.318 397.824L228.904 398.134L216.173 390.787L206.554 398.024L206.107 397.762L205.763 398.361L206.279 398.657V403.608L218.969 410.934V411.533H219.657V410.844L229.187 403.683H229.18Z" fill="white"/>
<path d="M218.969 405.611V405.983L206.279 398.657L205.763 398.361L206.107 397.762L206.562 398.024L219.293 405.37L218.969 405.611Z" fill="white"/>
<path d="M218.969 411.526V410.934V405.983V405.611L219.293 405.37L228.905 398.134L229.325 397.824L229.738 398.375L229.187 398.788L219.658 405.956V410.837V411.526H218.969Z" fill="white"/>
<path d="M240.279 424.002L226.708 416.167L226.536 416.07V409.956L237.07 402.031L250.642 409.867L250.814 409.963V416.091L240.279 424.009V424.002ZM250.263 409.887L249.85 410.197L237.119 402.85L227.5 410.087L227.052 409.825L226.708 410.424L227.224 410.72V415.671L239.914 422.997V423.596H240.603V422.907L250.125 415.747V410.851L250.676 410.438L250.263 409.887Z" fill="white"/>
<path d="M239.908 417.675V418.04L227.218 410.713L226.701 410.417L227.046 409.825L227.5 410.08L240.224 417.434L239.908 417.675Z" fill="white"/>
<path d="M240.596 418.019V422.901V423.589H239.908V422.99V418.04V417.675L240.224 417.434L249.843 410.197L250.263 409.88L250.676 410.431L250.125 410.851L240.596 418.019Z" fill="white"/>
<path d="M247.64 428.23L247.468 428.133V422.019L258.002 414.094L271.573 421.93L271.746 422.026V428.154L261.211 436.072L247.64 428.237V428.23ZM271.057 427.81V422.914L271.684 422.446L271.271 421.895L270.782 422.267L258.051 414.92L248.432 422.157L247.984 421.895L247.64 422.494L248.156 422.79V427.741L260.846 435.067V435.666H261.535V434.978L271.057 427.817V427.81Z" fill="white"/>
<path d="M260.846 429.738V430.11L248.156 422.784L247.64 422.487L247.984 421.888L248.438 422.15L261.163 429.497L260.846 429.738Z" fill="white"/>
<path d="M260.846 435.659V435.06V430.11V429.738L261.163 429.497L270.782 422.267L271.27 421.895L271.69 422.446L271.064 422.914L261.534 430.082V434.971V435.659H260.846Z" fill="white"/>
<path d="M80.6758 356.333V362.461L70.1411 370.379L47.4675 357.324L47.2954 357.228V351.114L57.8301 343.188L80.5036 356.243L80.6758 356.34V356.333ZM57.8782 344.001L48.2594 351.237L47.8049 350.976L47.4607 351.575L47.9771 351.871V356.822L69.7693 369.374V369.966H70.4578V369.277L79.9872 362.116V357.221L80.5381 356.808L80.1249 356.257L79.7118 356.567L57.8851 343.994L57.8782 344.001Z" fill="white"/>
<path d="M69.7696 364.044V364.416L47.9842 351.864L47.4678 351.568L47.8121 350.969L48.2666 351.231L70.0933 363.803L69.7696 364.044Z" fill="white"/>
<path d="M80.5383 356.808L79.9875 357.221L70.4581 364.389V369.27V369.959H69.7696V369.367V364.416V364.044L70.0932 363.803L79.7121 356.567L80.1252 356.257L80.5383 356.808Z" fill="white"/>
<path d="M86.6043 229.146H87.1138V229.841V271.925V272.606H86.921H86.4252V272.317V229.146H86.6043Z" fill="white"/>
<path d="M337.804 375.212H338.493V375.398V417.475V418.074H337.804V417.475V375.391V375.212Z" fill="white"/>
<path d="M227.782 232.589L228.107 231.959L228.329 231.01L228.599 230.484" stroke="#DCDCDC" stroke-width="0.236416"/>
<path d="M224.622 231.496L225.109 230.55L225.494 229.285" stroke="#DCDCDC" stroke-width="0.236416"/>
<path d="M224.238 232.76L223.967 233.285L223.907 233.919L223.637 234.445L223.522 235.184" stroke="#DCDCDC" stroke-width="0.236416"/>
<path d="M227.292 233.8L227.184 234.01L227.016 234.854L226.745 235.379L226.739 235.908" stroke="#DCDCDC" stroke-width="0.236416"/>
<path d="M245.102 206.937L247.15 208.124L242.797 214.259" stroke="#FFF5F5" stroke-width="0.236416"/>
<path d="M202.228 174.774L207.153 178.637L192.594 198.665L190.492 197.583" stroke="#FFF5F5" stroke-width="0.236416"/>
<path d="M299.081 183.929L296.883 182.001L282.159 202.608L287.345 206.738" stroke="#FFF5F5" stroke-width="0.236416"/>
<path d="M275.988 228.811L267.706 222.689L253.252 242.77L264.36 251.41" stroke="#FFF5F5" stroke-width="0.236416"/>
<path d="M227.753 193.89L227.072 193.406L212.405 213.644L219.483 218.748" stroke="#FFF5F5" stroke-width="0.236416"/>
<path d="M225.267 129.997L236.483 138.427L221.766 158.505L213.531 152.806" stroke="#FFF5F5" stroke-width="0.236416"/>
<path d="M267 139.5L231 249.5" stroke="#FFF5F5" stroke-width="0.236416"/>
<path d="M261.601 156.269L276.907 167.601L262.081 187.89L253.222 181.338" stroke="#FFF5F5" stroke-width="0.236416"/>
<path d="M248.5 129L212.5 239" stroke="#FFF5F5" stroke-width="0.236416"/>
<rect x="228.888" y="228.373" width="1.18208" height="1.89132" transform="rotate(27.2273 228.888 228.373)" fill="#F4F4F4"/>
<rect x="225.945" y="226.858" width="1.18208" height="1.89132" transform="rotate(27.2273 225.945 226.858)" fill="#F4F4F4"/>
<rect x="228.469" y="222.451" width="1.18208" height="1.89132" transform="rotate(40.2273 228.469 222.451)" fill="#F4F4F4"/>
<rect x="231.226" y="223.726" width="1.18208" height="1.89132" transform="rotate(40.2273 231.226 223.726)" fill="#F4F4F4"/>
<path d="M232.006 223.862L228.748 222.186L228.424 222.816L229.264 223.249L228.129 225.456L227.119 225.868L226.579 226.919L226.719 228.453L225.984 228.075L225.497 229.021L228.335 230.481L228.822 229.535L228.086 229.157L229.417 228.379L229.957 227.328L229.6 226.213L230.79 223.901L231.736 224.388L232.006 223.862Z" fill="#5B5B5B" stroke="white" stroke-width="0.236416"/>
</g>
<defs>
<clipPath id="clip0_3_356">
<rect width="571.418" height="519" fill="white" transform="matrix(-1 0 0 1 571.418 0)"/>
</clipPath>
</defs>
</svg>
